<svg xmlns="http://www.w3.org/2000/svg" xmlns:xlink="http://www.w3.org/1999/xlink" id="Ebene_2" width="26.7mm" height="96.831" viewBox="0 0 75.69 72.61"><defs><style>.cls-1{fill:url(#New_Gradient_Swatch_copy_2)}.cls-2{fill:url(#New_Gradient_Swatch_copy_2-2)}.cls-3{fill:#dadada}.cls-4{fill:url(#New_Gradient_Swatch_copy_2-3)}.cls-5{fill:url(#New_Gradient_Swatch_copy-2)}.cls-6{fill:url(#New_Gradient_Swatch_copy)}.cls-7{fill:url(#New_Gradient_Swatch_1)}.cls-8{fill:url(#New_Gradient_Swatch_1-2)}.cls-9{fill:url(#New_Gradient_Swatch_copy-3)}.cls-10{fill:#c6c6c6}</style><linearGradient id="New_Gradient_Swatch_copy" x1="4.79" x2="22.26" y1="27.29" y2="9.83" gradientTransform="matrix(1, 0, 0, 1, 0, 0)" gradientUnits="userSpaceOnUse"><stop offset="0" stop-color="#009fe3"/><stop offset="1" stop-color="#00b7ed"/></linearGradient><linearGradient id="New_Gradient_Swatch_1" x1="44.73" x2="65.28" y1="28.25" y2="7.7" gradientTransform="matrix(1, 0, 0, 1, 0, 0)" gradientUnits="userSpaceOnUse"><stop offset="0" stop-color="#fbb908"/><stop offset="1" stop-color="#ffce00"/></linearGradient><linearGradient id="New_Gradient_Swatch_1-2" x1="36.41" x2="57.91" y1="67.77" y2="46.27" xlink:href="#New_Gradient_Swatch_1"/><linearGradient id="New_Gradient_Swatch_copy-2" x1="8.46" x2="20.21" y1="63.97" y2="63.97" xlink:href="#New_Gradient_Swatch_copy"/><linearGradient id="New_Gradient_Swatch_copy-3" x1="20.36" x2="32.11" y1="63.97" y2="63.97" xlink:href="#New_Gradient_Swatch_copy"/><linearGradient id="New_Gradient_Swatch_copy_2" x1="59.96" x2="70.79" y1="67.09" y2="67.09" gradientTransform="matrix(1, 0, 0, 1, 0, 0)" gradientUnits="userSpaceOnUse"><stop offset="0" stop-color="#dcedfb"/><stop offset="1" stop-color="#eaf3fc"/></linearGradient><linearGradient id="New_Gradient_Swatch_copy_2-2" x1="5.51" x2="9.92" y1="56.32" y2="56.32" xlink:href="#New_Gradient_Swatch_copy_2"/><linearGradient id="New_Gradient_Swatch_copy_2-3" x1="0" x2="4.41" y1="65.44" y2="65.44" xlink:href="#New_Gradient_Swatch_copy_2"/></defs><g id="Icons"><g id="icon"><path id="Mond" d="M16.35,32.09C7.33,32.09,0,24.75,0,15.74,0,8.49,4.87,2.03,11.84,.03c.3-.08,.62,0,.84,.22,.22,.22,.3,.54,.22,.84-.38,1.34-.58,2.7-.58,4.04,0,8.07,6.57,14.64,14.64,14.64,1.34,0,2.7-.19,4.04-.58,.3-.08,.62,0,.84,.22,.22,.22,.3,.54,.22,.84-2,6.97-8.46,11.84-15.71,11.84Z" class="cls-6"/><circle id="Sonne" cx="55" cy="17.97" r="14.53" class="cls-7"/><g id="Gewitter"><path d="M49.63,43.12c-1.85,0-4.11,1.31-5.04,2.91l-5.9,10.21c-.92,1.6-.17,2.8,1.67,2.66l4.82-.35c1.84-.14,2.63,1.08,1.75,2.7l-5.36,9.86c-.88,1.62-.44,1.99,.99,.82l19.37-15.93c1.43-1.17,1.08-2.06-.76-1.96l-7.4,.38c-1.84,.09-2.6-1.14-1.67-2.74l3.26-5.64c.92-1.6,.17-2.91-1.68-2.91h-4.04Z" class="cls-8"/><path d="M10.69,72.51c-.38,0-.76-.1-1.12-.3-1.07-.62-1.44-1.99-.82-3.06l7.28-12.6c.62-1.07,1.99-1.44,3.06-.82,1.07,.62,1.44,1.99,.82,3.06l-7.28,12.6c-.41,.72-1.17,1.12-1.94,1.12Z" class="cls-5"/><path d="M22.6,72.51c-.38,0-.76-.1-1.12-.3-1.07-.62-1.44-1.99-.82-3.06l7.28-12.6c.62-1.07,1.99-1.44,3.06-.82,1.07,.62,1.44,1.99,.82,3.06l-7.28,12.6c-.41,.72-1.17,1.12-1.94,1.12Z" class="cls-9"/></g><g id="Wolken"><path d="M52.03,47.64c6.66,0,12.06-5.4,12.06-12.06s-5.4-12.06-12.06-12.06c-.04,0-.08,0-.12,0-1.07-9.62-9.23-17.1-19.13-17.1-7.82,0-14.55,4.67-17.56,11.37-.1,0-.19,0-.29,0C6.68,17.79,0,24.47,0,32.71s6.68,14.93,14.93,14.93" class="cls-3"/><path d="M68.12,47.64c4.18,0,7.57-3.39,7.57-7.57s-3.39-7.57-7.57-7.57c-.03,0-.05,0-.08,0-.67-6.04-5.79-10.74-12.01-10.74-4.91,0-9.14,2.93-11.03,7.14-.06,0-.12,0-.18,0-5.18,0-9.37,4.2-9.37,9.37s4.2,9.37,9.37,9.37" class="cls-10"/></g><circle cx="65.37" cy="67.09" r="5.41" class="cls-1"/><circle cx="7.71" cy="56.32" r="2.2" class="cls-2"/><circle cx="2.2" cy="65.44" r="2.2" class="cls-4"/></g></g></svg>